# xmcd
#
# Track frame offsets: 
#        150
#        15247
#        29587
#        40890
#        52507
#        68180
#        84235
#        99450
#        114315
#        127960
#        173485
#        185537
#        199447
#        214112
#        232180
#
# Disc length: 3213 seconds
#
# Revision: 0
# Processed by: cddbd v1.5.2PL0 Copyright (c) Steve Scherf et al.
# Submitted via: ExactAudioCopyFreeDBPlugin 1.0
#
DISCID=be0c8b0f
DTITLE=Memphis Slim and Alexis Korner - Two Of The Same Kind [CD2]
DYEAR=2012
DGENRE=Blues
TTITLE0=Help Me Some
TTITLE1=Ain't Nobody's Business
TTITLE2=Fattening Frogs for Snakes
TTITLE3=Messin' Around
TTITLE4=I Feel So Good
TTITLE5=Worried Life Blues
TTITLE6=Every Day
TTITLE7=Angel Child
TTITLE8=One More Time
TTITLE9=Blues in London-Parts 1 and 2
TTITLE10=Messin' Around (take 4)
TTITLE11=I Feel So Good (take 2)
TTITLE12=Ain't Nobody's Business (take 1)
TTITLE13=Every Day (take 1)
TTITLE14=Fattening Frogs for Snakes (take 1)
EXTD=
EXTT0=
EXTT1=
EXTT2=
EXTT3=
EXTT4=
EXTT5=
EXTT6=
EXTT7=
EXTT8=
EXTT9=
EXTT10=
EXTT11=
EXTT12=
EXTT13=
EXTT14=
PLAYORDER=
